<svg viewBox="0 0 600 310" xmlns="http://www.w3.org/2000/svg" style="width:100%;height:100%"><rect width="600" height="310" fill="#080f1e" rx="10"/><text x="300" y="22" text-anchor="middle" font-size="12" fill="#2dd4a0" font-family="sans-serif" font-weight="600" letter-spacing="0.04em">SECTOR REVENUE INDEX — 2024–2025</text><line x1="52" y1="34" x2="52" y2="246" stroke="#162840" stroke-width="1"/><line x1="52" y1="246" x2="582" y2="246" stroke="#162840" stroke-width="1"/><line x1="52" y1="239.2" x2="582" y2="239.2" stroke="#0e1e30" stroke-width="1"/><text x="47" y="239.2" text-anchor="end" dominant-baseline="middle" font-size="9" fill="#4a7a70" font-family="monospace">60</text><line x1="52" y1="198.1" x2="582" y2="198.1" stroke="#0e1e30" stroke-width="1"/><text x="47" y="198.1" text-anchor="end" dominant-baseline="middle" font-size="9" fill="#4a7a70" font-family="monospace">90</text><line x1="52" y1="157.1" x2="582" y2="157.1" stroke="#0e1e30" stroke-width="1"/><text x="47" y="157.1" text-anchor="end" dominant-baseline="middle" font-size="9" fill="#4a7a70" font-family="monospace">120</text><line x1="52" y1="116.1" x2="582" y2="116.1" stroke="#0e1e30" stroke-width="1"/><text x="47" y="116.1" text-anchor="end" dominant-baseline="middle" font-size="9" fill="#4a7a70" font-family="monospace">150</text><line x1="52" y1="75.0" x2="582" y2="75.0" stroke="#0e1e30" stroke-width="1"/><text x="47" y="75.0" text-anchor="end" dominant-baseline="middle" font-size="9" fill="#4a7a70" font-family="monospace">180</text><line x1="52" y1="34.0" x2="582" y2="34.0" stroke="#0e1e30" stroke-width="1"/><text x="47" y="34.0" text-anchor="end" dominant-baseline="middle" font-size="9" fill="#4a7a70" font-family="monospace">210</text><text x="52.0" y="259" text-anchor="middle" font-size="8" fill="#4a7a70" font-family="monospace">2024-01</text><text x="144.2" y="259" text-anchor="middle" font-size="8" fill="#4a7a70" font-family="monospace">2024-05</text><text x="236.3" y="259" text-anchor="middle" font-size="8" fill="#4a7a70" font-family="monospace">2025-02</text><text x="328.5" y="259" text-anchor="middle" font-size="8" fill="#4a7a70" font-family="monospace">2025-06</text><text x="420.7" y="259" text-anchor="middle" font-size="8" fill="#4a7a70" font-family="monospace">2025-11</text><text x="512.9" y="259" text-anchor="middle" font-size="8" fill="#4a7a70" font-family="monospace">2026-09</text><polyline points="52.0,224.4 75.0,216.5 98.1,208.5 121.1,227.9 144.2,220.0 167.2,212.1 190.3,204.1 213.3,211.3 236.3,203.3 259.4,195.4 282.4,214.8 305.5,206.9 328.5,198.9 351.6,223.6 374.6,215.6 397.7,207.7 420.7,199.8 443.7,219.2 466.8,191.0 489.8,210.4 512.9,202.5 535.9,194.6 559.0,186.6 582.0,206.1" fill="none" stroke="#fb923c" stroke-width="2" stroke-linejoin="round" stroke-linecap="round" opacity="0.9"/><circle cx="582.0" cy="206.1" r="3.5" fill="#fb923c"/><rect x="52" y="278" width="14" height="5" fill="#fb923c" rx="2"/><text x="70" y="282" dominant-baseline="middle" font-size="9" fill="#94d4c8" font-family="sans-serif">Energy</text><polyline points="52.0,170.1 75.0,155.7 98.1,168.7 121.1,154.4 144.2,167.4 167.2,153.0 190.3,138.6 213.3,134.5 236.3,120.2 259.4,133.2 282.4,118.8 305.5,104.4 328.5,117.4 351.6,151.6 374.6,137.3 397.7,150.3 420.7,135.9 443.7,121.5 466.8,103.1 489.8,116.1 512.9,101.7 535.9,87.3 559.0,100.3 582.0,86.0" fill="none" stroke="#4ade80" stroke-width="2" stroke-linejoin="round" stroke-linecap="round" opacity="0.9"/><circle cx="582.0" cy="86.0" r="3.5" fill="#4ade80"/><rect x="232" y="278" width="14" height="5" fill="#4ade80" rx="2"/><text x="250" y="282" dominant-baseline="middle" font-size="9" fill="#94d4c8" font-family="sans-serif">Finance</text><polyline points="52.0,183.4 75.0,189.1 98.1,194.8 121.1,173.2 144.2,179.0 167.2,184.7 190.3,163.1 213.3,170.2 236.3,148.6 259.4,154.4 282.4,160.1 305.5,138.5 328.5,144.2 351.6,168.9 374.6,174.6 397.7,180.3 420.7,158.7 443.7,164.5 466.8,150.0 489.8,155.7 512.9,134.1 535.9,139.9 559.0,145.6 582.0,124.0" fill="none" stroke="#38bdf8" stroke-width="2" stroke-linejoin="round" stroke-linecap="round" opacity="0.9"/><circle cx="582.0" cy="124.0" r="3.5" fill="#38bdf8"/><rect x="412" y="278" width="14" height="5" fill="#38bdf8" rx="2"/><text x="430" y="282" dominant-baseline="middle" font-size="9" fill="#94d4c8" font-family="sans-serif">Healthcare</text><polyline points="52.0,202.1 75.0,212.9 98.1,196.4 121.1,207.2 144.2,190.6 167.2,201.4 190.3,184.9 213.3,195.0 236.3,178.4 259.4,189.2 282.4,172.7 305.5,183.5 328.5,166.9 351.6,195.7 374.6,179.1 397.7,189.9 420.7,200.7 443.7,184.2 466.8,177.7 489.8,188.6 512.9,172.0 535.9,182.8 559.0,166.3 582.0,177.1" fill="none" stroke="#818cf8" stroke-width="2" stroke-linejoin="round" stroke-linecap="round" opacity="0.9"/><circle cx="582.0" cy="177.1" r="3.5" fill="#818cf8"/><rect x="52" y="292" width="14" height="5" fill="#818cf8" rx="2"/><text x="70" y="296" dominant-baseline="middle" font-size="9" fill="#94d4c8" font-family="sans-serif">Manufacturing</text><polyline points="52.0,143.1 75.0,142.9 98.1,142.6 121.1,142.3 144.2,142.1 167.2,141.8 190.3,114.1 213.3,112.5 236.3,84.9 259.4,84.6 282.4,84.3 305.5,84.1 328.5,83.8 351.6,113.9 374.6,113.6 397.7,113.3 420.7,113.1 443.7,112.8 466.8,83.5 489.8,83.2 512.9,55.6 535.9,55.3 559.0,55.1 582.0,54.8" fill="none" stroke="#2dd4a0" stroke-width="2" stroke-linejoin="round" stroke-linecap="round" opacity="0.9"/><circle cx="582.0" cy="54.8" r="3.5" fill="#2dd4a0"/><rect x="232" y="292" width="14" height="5" fill="#2dd4a0" rx="2"/><text x="250" y="296" dominant-baseline="middle" font-size="9" fill="#94d4c8" font-family="sans-serif">Technology</text></svg>